<svg xmlns="http://www.w3.org/2000/svg" xmlns:xlink="http://www.w3.org/1999/xlink" width="800" zoomAndPan="magnify" viewBox="0 0 600 187.499995" height="250" preserveAspectRatio="xMidYMid meet" version="1.0"><defs><g/><clipPath id="5014877cd3"><path d="M 0.796875 0 L 599.199219 0 L 599.199219 187 L 0.796875 187 Z M 0.796875 0 " clip-rule="nonzero"/></clipPath><clipPath id="a7a6211893"><path d="M 225.996094 17.863281 L 321.742188 17.863281 L 321.742188 68.726562 L 225.996094 68.726562 Z M 225.996094 17.863281 " clip-rule="nonzero"/></clipPath><clipPath id="0352326b46"><path d="M 333.457031 36.335938 L 473.332031 36.335938 L 473.332031 168.796875 L 333.457031 168.796875 Z M 333.457031 36.335938 " clip-rule="nonzero"/></clipPath><clipPath id="44b43a29a1"><path d="M 202.910156 116.835938 L 212.414062 116.835938 L 212.414062 126.339844 L 202.910156 126.339844 Z M 202.910156 116.835938 " clip-rule="nonzero"/></clipPath><clipPath id="41b5d65154"><path d="M 207.664062 116.835938 C 205.039062 116.835938 202.910156 118.964844 202.910156 121.589844 C 202.910156 124.214844 205.039062 126.339844 207.664062 126.339844 C 210.289062 126.339844 212.414062 124.214844 212.414062 121.589844 C 212.414062 118.964844 210.289062 116.835938 207.664062 116.835938 " clip-rule="nonzero"/></clipPath><clipPath id="99be2472e7"><path d="M 223.785156 77.921875 L 233.289062 77.921875 L 233.289062 87.425781 L 223.785156 87.425781 Z M 223.785156 77.921875 " clip-rule="nonzero"/></clipPath><clipPath id="c72c56db11"><path d="M 228.539062 77.921875 C 225.914062 77.921875 223.785156 80.050781 223.785156 82.671875 C 223.785156 85.296875 225.914062 87.425781 228.539062 87.425781 C 231.164062 87.425781 233.289062 85.296875 233.289062 82.671875 C 233.289062 80.050781 231.164062 77.921875 228.539062 77.921875 " clip-rule="nonzero"/></clipPath><clipPath id="fa8a4aa72d"><path d="M 82.25 77.921875 L 91.75 77.921875 L 91.75 87.425781 L 82.25 87.425781 Z M 82.25 77.921875 " clip-rule="nonzero"/></clipPath><clipPath id="fa2e625d5a"><path d="M 87 77.921875 C 84.375 77.921875 82.25 80.050781 82.25 82.671875 C 82.25 85.296875 84.375 87.425781 87 87.425781 C 89.625 87.425781 91.75 85.296875 91.75 82.671875 C 91.75 80.050781 89.625 77.921875 87 77.921875 " clip-rule="nonzero"/></clipPath><clipPath id="fccf3ad762"><path d="M 434.484375 83.519531 L 442.296875 83.519531 L 442.296875 91.332031 L 434.484375 91.332031 Z M 434.484375 83.519531 " clip-rule="nonzero"/></clipPath><clipPath id="2f47989dbc"><path d="M 438.390625 83.519531 C 436.230469 83.519531 434.484375 85.265625 434.484375 87.425781 C 434.484375 89.582031 436.230469 91.332031 438.390625 91.332031 C 440.546875 91.332031 442.296875 89.582031 442.296875 87.425781 C 442.296875 85.265625 440.546875 83.519531 438.390625 83.519531 " clip-rule="nonzero"/></clipPath><clipPath id="b3e5cf222d"><path d="M 269.648438 39.683594 L 277.351562 39.683594 L 277.351562 47.386719 L 269.648438 47.386719 Z M 269.648438 39.683594 " clip-rule="nonzero"/></clipPath><clipPath id="1100850c70"><path d="M 273.5 39.683594 C 271.371094 39.683594 269.648438 41.410156 269.648438 43.535156 C 269.648438 45.664062 271.371094 47.386719 273.5 47.386719 C 275.628906 47.386719 277.351562 45.664062 277.351562 43.535156 C 277.351562 41.410156 275.628906 39.683594 273.5 39.683594 " clip-rule="nonzero"/></clipPath></defs><g clip-path="url(#5014877cd3)"><path fill="#ffffff" d="M 0.796875 0 L 599.203125 0 L 599.203125 770.445312 L 0.796875 770.445312 Z M 0.796875 0 " fill-opacity="1" fill-rule="nonzero"/><path fill="#ffffff" d="M 0.796875 0 L 599.203125 0 L 599.203125 187 L 0.796875 187 Z M 0.796875 0 " fill-opacity="1" fill-rule="nonzero"/><path fill="#ffffff" d="M 0.796875 0 L 599.203125 0 L 599.203125 187 L 0.796875 187 Z M 0.796875 0 " fill-opacity="1" fill-rule="nonzero"/></g><g clip-path="url(#a7a6211893)"><path fill="#000000" d="M 273.414062 49.605469 C 270.101562 49.605469 267.402344 46.886719 267.402344 43.5625 C 267.402344 40.234375 270.101562 37.519531 273.414062 37.519531 C 276.734375 37.519531 279.453125 40.234375 279.453125 43.5625 C 279.453125 46.886719 276.734375 49.605469 273.414062 49.605469 Z M 312.367188 68.699219 C 311.710938 68.699219 311.070312 68.523438 310.503906 68.207031 C 309.605469 67.699219 308.96875 66.890625 308.6875 65.90625 C 308.410156 64.921875 308.539062 63.878906 309.042969 62.976562 C 313.640625 54.738281 315.175781 45.085938 313.328125 35.796875 C 312.480469 31.480469 310.957031 27.394531 308.789062 23.648438 C 307.753906 21.8125 308.378906 19.46875 310.191406 18.410156 C 310.785156 18.066406 311.441406 17.890625 312.105469 17.890625 C 313.460938 17.890625 314.738281 18.621094 315.417969 19.8125 C 317.996094 24.304688 319.828125 29.179688 320.835938 34.316406 C 323.027344 45.386719 321.210938 56.902344 315.703125 66.742188 C 315.015625 67.949219 313.746094 68.699219 312.367188 68.699219 Z M 286.375 58.476562 C 285.421875 58.476562 284.496094 58.125 283.785156 57.46875 C 283.027344 56.777344 282.59375 55.832031 282.558594 54.808594 C 282.515625 53.789062 282.867188 52.808594 283.558594 52.050781 C 286.253906 49.105469 287.402344 45.007812 286.640625 41.101562 C 286.160156 38.71875 285.042969 36.550781 283.363281 34.8125 C 281.894531 33.285156 281.933594 30.851562 283.441406 29.398438 C 284.15625 28.695312 285.113281 28.308594 286.101562 28.308594 C 287.148438 28.308594 288.117188 28.722656 288.847656 29.46875 C 291.558594 32.257812 293.382812 35.761719 294.144531 39.609375 C 295.390625 45.921875 293.519531 52.523438 289.175781 57.246094 C 288.457031 58.027344 287.4375 58.476562 286.375 58.476562 Z M 299.5 63.683594 C 298.765625 63.683594 298.050781 63.46875 297.425781 63.074219 C 296.582031 62.519531 295.980469 61.675781 295.769531 60.667969 C 295.546875 59.667969 295.75 58.632812 296.292969 57.773438 C 300.003906 52.015625 301.3125 45.15625 299.988281 38.445312 C 299.328125 35.03125 298.011719 31.847656 296.082031 28.957031 C 295.5 28.109375 295.300781 27.085938 295.5 26.078125 C 295.703125 25.074219 296.265625 24.207031 297.121094 23.636719 C 297.753906 23.214844 298.488281 22.992188 299.242188 22.992188 C 300.523438 22.992188 301.71875 23.628906 302.421875 24.683594 C 304.917969 28.421875 306.625 32.546875 307.496094 36.960938 C 309.199219 45.632812 307.503906 54.507812 302.714844 61.925781 C 302.007812 63.03125 300.808594 63.683594 299.5 63.683594 Z M 235.386719 68.699219 C 233.996094 68.699219 232.71875 67.949219 232.042969 66.742188 C 226.53125 56.902344 224.707031 45.386719 226.902344 34.316406 C 227.914062 29.179688 229.746094 24.304688 232.324219 19.8125 C 233.003906 18.621094 234.285156 17.890625 235.632812 17.890625 C 236.292969 17.890625 236.960938 18.066406 237.550781 18.410156 C 239.363281 19.46875 239.984375 21.8125 238.953125 23.648438 C 236.785156 27.394531 235.253906 31.484375 234.417969 35.796875 C 232.566406 45.085938 234.09375 54.738281 238.703125 62.976562 C 239.203125 63.878906 239.328125 64.921875 239.054688 65.90625 C 238.777344 66.890625 238.132812 67.699219 237.238281 68.207031 C 236.660156 68.523438 236.03125 68.699219 235.386719 68.699219 Z M 261.367188 58.476562 C 260.304688 58.476562 259.273438 58.027344 258.5625 57.246094 C 254.21875 52.523438 252.355469 45.921875 253.601562 39.609375 C 254.363281 35.761719 256.1875 32.257812 258.890625 29.46875 C 259.625 28.722656 260.597656 28.308594 261.636719 28.308594 C 262.625 28.308594 263.585938 28.695312 264.296875 29.398438 C 265.8125 30.851562 265.847656 33.285156 264.375 34.8125 C 262.703125 36.550781 261.582031 38.71875 261.101562 41.101562 C 260.335938 45.007812 261.488281 49.105469 264.179688 52.050781 C 264.878906 52.808594 265.230469 53.789062 265.183594 54.808594 C 265.148438 55.832031 264.710938 56.777344 263.957031 57.46875 C 263.242188 58.125 262.320312 58.476562 261.367188 58.476562 Z M 248.246094 63.683594 C 246.933594 63.683594 245.734375 63.03125 245.027344 61.925781 C 240.242188 54.507812 238.542969 45.632812 240.25 36.960938 C 241.117188 32.546875 242.828125 28.421875 245.320312 24.683594 C 246.023438 23.628906 247.222656 22.992188 248.496094 22.992188 C 249.253906 22.992188 249.984375 23.214844 250.625 23.636719 C 251.476562 24.207031 252.042969 25.074219 252.246094 26.078125 C 252.445312 27.085938 252.246094 28.109375 251.664062 28.957031 C 249.726562 31.847656 248.414062 35.03125 247.757812 38.445312 C 246.425781 45.15625 247.742188 52.015625 251.449219 57.773438 C 251.992188 58.632812 252.195312 59.667969 251.972656 60.667969 C 251.761719 61.675781 251.160156 62.519531 250.308594 63.074219 C 249.691406 63.46875 248.972656 63.683594 248.246094 63.683594 Z M 248.246094 63.683594 " fill-opacity="1" fill-rule="nonzero"/></g><g clip-path="url(#0352326b46)"><path fill="#000000" d="M 469.355469 93.636719 C 466.605469 90.75 462.757812 89.136719 458.804688 89.265625 L 457.542969 89.265625 C 460.234375 87.203125 461.980469 83.953125 461.980469 80.296875 C 461.980469 74.074219 456.941406 69.011719 450.746094 69.011719 L 450.15625 69.011719 C 452.453125 67.125 453.921875 64.257812 453.921875 61.054688 C 453.921875 55.386719 449.332031 50.78125 443.691406 50.78125 L 439.292969 50.78125 C 437.515625 48.171875 429.1875 37.917969 407.578125 36.722656 L 407.578125 23.578125 C 407.578125 22.9375 407.058594 22.417969 406.414062 22.417969 C 405.773438 22.417969 405.253906 22.9375 405.253906 23.578125 L 405.253906 36.628906 C 404.640625 36.613281 404.027344 36.597656 403.394531 36.597656 C 402.757812 36.597656 402.144531 36.613281 401.53125 36.628906 L 401.53125 23.578125 C 401.53125 22.9375 401.011719 22.417969 400.371094 22.417969 C 399.726562 22.417969 399.207031 22.9375 399.207031 23.578125 L 399.207031 36.722656 C 377.597656 37.917969 369.269531 48.171875 367.492188 50.78125 L 363.09375 50.78125 C 357.453125 50.78125 352.863281 55.386719 352.863281 61.054688 C 352.863281 64.257812 354.332031 67.125 356.628906 69.011719 L 356.039062 69.011719 C 349.84375 69.011719 344.800781 74.074219 344.800781 80.296875 C 344.800781 83.957031 346.550781 87.203125 349.242188 89.265625 L 348.011719 89.265625 C 344.007812 89.140625 340.179688 90.75 337.429688 93.636719 C 334.789062 96.417969 333.4375 100.078125 333.726562 103.683594 C 334.273438 110.523438 340.402344 115.90625 347.46875 115.90625 C 347.640625 115.90625 347.8125 115.902344 347.980469 115.894531 L 349.246094 115.894531 C 346.550781 117.960938 344.804688 121.207031 344.804688 124.863281 C 344.804688 131.089844 349.847656 136.152344 356.042969 136.152344 L 356.628906 136.152344 C 354.332031 138.035156 352.867188 140.902344 352.867188 144.105469 C 352.867188 149.773438 357.453125 154.382812 363.09375 154.382812 L 367.496094 154.382812 C 369.382812 157.152344 378.652344 168.5625 403.394531 168.5625 C 428.136719 168.5625 437.40625 157.152344 439.292969 154.382812 L 443.695312 154.382812 C 449.332031 154.382812 453.921875 149.773438 453.921875 144.105469 C 453.921875 140.902344 452.457031 138.035156 450.160156 136.152344 L 450.746094 136.152344 C 456.941406 136.152344 461.984375 131.085938 461.984375 124.863281 C 461.984375 121.207031 460.234375 117.957031 457.542969 115.894531 L 458.761719 115.894531 C 458.9375 115.898438 459.109375 115.902344 459.277344 115.902344 C 466.386719 115.902344 472.515625 110.519531 473.0625 103.6875 C 473.351562 100.078125 471.996094 96.417969 469.355469 93.636719 Z M 403.394531 38.917969 C 423.769531 38.917969 433.15625 47.117188 436.332031 50.78125 L 370.441406 50.78125 C 373.589844 47.117188 382.925781 38.917969 403.394531 38.917969 Z M 355.1875 61.054688 C 355.1875 56.667969 358.734375 53.097656 363.09375 53.097656 L 443.695312 53.097656 C 448.050781 53.097656 451.597656 56.667969 451.597656 61.054688 C 451.597656 65.441406 448.050781 69.011719 443.695312 69.011719 L 363.09375 69.011719 C 358.734375 69.011719 355.1875 65.441406 355.1875 61.054688 Z M 356.042969 89.265625 C 351.128906 89.265625 347.128906 85.242188 347.128906 80.300781 C 347.128906 75.355469 351.125 71.332031 356.042969 71.332031 L 450.746094 71.332031 C 455.660156 71.332031 459.660156 75.355469 459.660156 80.300781 C 459.660156 85.242188 455.660156 89.265625 450.746094 89.265625 L 421.816406 89.265625 C 417.546875 83.734375 410.886719 80.152344 403.394531 80.152344 C 395.902344 80.152344 389.242188 83.734375 384.972656 89.265625 Z M 421.582031 114.164062 C 417.832031 120.675781 410.863281 124.714844 403.394531 124.714844 C 391.8125 124.714844 382.390625 115.242188 382.390625 103.59375 C 382.390625 91.945312 391.8125 82.46875 403.394531 82.46875 C 414.976562 82.46875 424.398438 91.945312 424.398438 103.59375 C 424.398438 107.3125 423.421875 110.96875 421.582031 114.164062 Z M 347.9375 113.574219 C 341.847656 113.8125 336.503906 109.28125 336.042969 103.5 C 335.808594 100.550781 336.925781 97.535156 339.117188 95.238281 C 341.414062 92.820312 344.644531 91.496094 347.984375 91.585938 L 383.398438 91.585938 C 381.296875 95.105469 380.070312 99.203125 380.070312 103.59375 C 380.070312 107.167969 380.890625 110.542969 382.320312 113.574219 L 356.042969 113.574219 C 356.039062 113.574219 356.035156 113.574219 356.035156 113.574219 Z M 403.394531 166.242188 C 383.019531 166.242188 373.632812 158.046875 370.457031 154.382812 L 436.332031 154.382812 C 433.152344 158.046875 423.765625 166.242188 403.394531 166.242188 Z M 451.597656 144.109375 C 451.597656 148.496094 448.050781 152.0625 443.695312 152.0625 L 363.09375 152.0625 C 358.734375 152.0625 355.1875 148.496094 355.1875 144.109375 C 355.1875 139.722656 358.734375 136.152344 363.09375 136.152344 L 443.695312 136.152344 C 448.050781 136.152344 451.597656 139.71875 451.597656 144.109375 Z M 459.660156 124.863281 C 459.660156 129.808594 455.660156 133.832031 450.746094 133.832031 L 356.042969 133.832031 C 351.128906 133.832031 347.128906 129.808594 347.128906 124.863281 C 347.128906 119.917969 351.125 115.894531 356.042969 115.894531 L 383.574219 115.894531 C 387.691406 122.566406 395.023438 127.035156 403.394531 127.035156 C 411.46875 127.035156 419.003906 122.78125 423.242188 115.894531 L 450.746094 115.894531 C 455.660156 115.894531 459.660156 119.917969 459.660156 124.863281 Z M 470.746094 103.5 C 470.28125 109.28125 464.9375 113.777344 458.804688 113.574219 L 424.496094 113.574219 C 425.949219 110.46875 426.71875 107.054688 426.71875 103.59375 C 426.71875 99.203125 425.488281 95.105469 423.390625 91.585938 L 458.839844 91.585938 C 462.144531 91.492188 465.375 92.824219 467.671875 95.238281 C 469.859375 97.539062 470.980469 100.550781 470.746094 103.5 Z M 470.746094 103.5 " fill-opacity="1" fill-rule="nonzero"/></g><g fill="#000000" fill-opacity="1"><g transform="translate(14.28596, 126.097072)"><g><path d="M 41.5 -13.015625 C 43.257812 -13.015625 44.78125 -13.65625 46.0625 -14.9375 C 47.351562 -16.226562 48 -17.757812 48 -19.53125 C 48 -21.289062 47.351562 -22.8125 46.0625 -24.09375 C 44.78125 -25.382812 43.257812 -26.03125 41.5 -26.03125 L 21.96875 -26.03125 C 19.257812 -26.03125 16.71875 -26.539062 14.34375 -27.5625 C 11.96875 -28.582031 9.894531 -29.972656 8.125 -31.734375 C 6.363281 -33.492188 4.972656 -35.5625 3.953125 -37.9375 C 2.941406 -40.3125 2.4375 -42.851562 2.4375 -45.5625 C 2.4375 -48.269531 2.941406 -50.8125 3.953125 -53.1875 C 4.972656 -55.5625 6.363281 -57.628906 8.125 -59.390625 C 9.894531 -61.148438 11.96875 -62.539062 14.34375 -63.5625 C 16.71875 -64.582031 19.257812 -65.09375 21.96875 -65.09375 L 51.265625 -65.09375 C 53.023438 -65.09375 54.546875 -64.445312 55.828125 -63.15625 C 57.117188 -61.863281 57.765625 -60.335938 57.765625 -58.578125 C 57.765625 -56.816406 57.117188 -55.289062 55.828125 -54 C 54.546875 -52.71875 53.023438 -52.078125 51.265625 -52.078125 L 21.96875 -52.078125 C 20.207031 -52.078125 18.679688 -51.429688 17.390625 -50.140625 C 16.097656 -48.847656 15.453125 -47.320312 15.453125 -45.5625 C 15.453125 -43.800781 16.097656 -42.273438 17.390625 -40.984375 C 18.679688 -39.691406 20.207031 -39.046875 21.96875 -39.046875 L 41.5 -39.046875 C 44.207031 -39.046875 46.75 -38.535156 49.125 -37.515625 C 51.5 -36.503906 53.566406 -35.117188 55.328125 -33.359375 C 57.085938 -31.597656 58.472656 -29.53125 59.484375 -27.15625 C 60.503906 -24.78125 61.015625 -22.238281 61.015625 -19.53125 C 61.015625 -16.8125 60.503906 -14.265625 59.484375 -11.890625 C 58.472656 -9.523438 57.085938 -7.457031 55.328125 -5.6875 C 53.566406 -3.925781 51.5 -2.535156 49.125 -1.515625 C 46.75 -0.503906 44.207031 0 41.5 0 L 8.953125 0 C 7.191406 0 5.664062 -0.640625 4.375 -1.921875 C 3.082031 -3.210938 2.4375 -4.742188 2.4375 -6.515625 C 2.4375 -8.273438 3.082031 -9.796875 4.375 -11.078125 C 5.664062 -12.367188 7.191406 -13.015625 8.953125 -13.015625 Z M 41.5 -13.015625 "/></g></g></g><g fill="#000000" fill-opacity="1"><g transform="translate(76.116665, 126.097072)"><g><path d="M 36.609375 -29.296875 C 36.609375 -32.003906 35.660156 -34.304688 33.765625 -36.203125 C 31.867188 -38.097656 29.5625 -39.046875 26.84375 -39.046875 C 24.132812 -39.046875 21.832031 -38.097656 19.9375 -36.203125 C 18.039062 -34.304688 17.09375 -32.003906 17.09375 -29.296875 L 17.09375 -6.515625 C 17.09375 -4.742188 16.445312 -3.210938 15.15625 -1.921875 C 13.863281 -0.640625 12.335938 0 10.578125 0 C 8.816406 0 7.289062 -0.640625 6 -1.921875 C 4.707031 -3.210938 4.0625 -4.742188 4.0625 -6.515625 L 4.0625 -29.296875 C 4.0625 -32.953125 4.84375 -36.335938 6.40625 -39.453125 C 5.457031 -40.140625 4.691406 -41.003906 4.109375 -42.046875 C 3.535156 -43.097656 3.25 -44.269531 3.25 -45.5625 C 3.25 -47.59375 3.960938 -49.320312 5.390625 -50.75 C 6.816406 -52.175781 8.546875 -52.890625 10.578125 -52.890625 C 11.867188 -52.890625 13.035156 -52.582031 14.078125 -51.96875 C 15.128906 -51.363281 15.992188 -50.582031 16.671875 -49.625 C 18.234375 -50.375 19.863281 -50.96875 21.5625 -51.40625 C 23.257812 -51.851562 25.019531 -52.078125 26.84375 -52.078125 C 30.101562 -52.078125 33.101562 -51.460938 35.84375 -50.234375 C 38.59375 -49.015625 41.019531 -47.359375 43.125 -45.265625 C 45.15625 -47.359375 47.5625 -49.015625 50.34375 -50.234375 C 53.125 -51.460938 56.140625 -52.078125 59.390625 -52.078125 C 62.515625 -52.078125 65.460938 -51.484375 68.234375 -50.296875 C 71.015625 -49.109375 73.4375 -47.476562 75.5 -45.40625 C 77.570312 -43.34375 79.203125 -40.921875 80.390625 -38.140625 C 81.578125 -35.359375 82.171875 -32.410156 82.171875 -29.296875 L 82.171875 -6.515625 C 82.171875 -4.742188 81.523438 -3.210938 80.234375 -1.921875 C 78.953125 -0.640625 77.429688 0 75.671875 0 C 73.898438 0 72.367188 -0.640625 71.078125 -1.921875 C 69.796875 -3.210938 69.15625 -4.742188 69.15625 -6.515625 L 69.15625 -29.296875 C 69.15625 -32.003906 68.207031 -34.304688 66.3125 -36.203125 C 64.414062 -38.097656 62.109375 -39.046875 59.390625 -39.046875 C 56.679688 -39.046875 54.375 -38.097656 52.46875 -36.203125 C 50.570312 -34.304688 49.625 -32.003906 49.625 -29.296875 L 49.625 -6.515625 C 49.625 -4.742188 48.976562 -3.210938 47.6875 -1.921875 C 46.40625 -0.640625 44.882812 0 43.125 0 C 41.363281 0 39.835938 -0.640625 38.546875 -1.921875 C 37.253906 -3.210938 36.609375 -4.742188 36.609375 -6.515625 Z M 36.609375 -29.296875 "/></g></g></g><g fill="#e37e03" fill-opacity="1"><g transform="translate(160.709171, 126.097072)"><g><path d="M 1.625 -26.03125 C 1.625 -29.625 2.300781 -33 3.65625 -36.15625 C 5.019531 -39.3125 6.882812 -42.070312 9.25 -44.4375 C 11.625 -46.8125 14.382812 -48.675781 17.53125 -50.03125 C 20.6875 -51.394531 24.0625 -52.078125 27.65625 -52.078125 C 31.25 -52.078125 34.625 -51.394531 37.78125 -50.03125 C 40.9375 -48.675781 43.695312 -46.8125 46.0625 -44.4375 C 48.4375 -42.070312 50.300781 -39.3125 51.65625 -36.15625 C 53.019531 -33 53.703125 -29.625 53.703125 -26.03125 C 53.703125 -23.65625 53.394531 -21.398438 52.78125 -19.265625 C 52.175781 -17.128906 51.328125 -15.082031 50.234375 -13.125 C 51.523438 -12.582031 52.5625 -11.71875 53.34375 -10.53125 C 54.125 -9.34375 54.515625 -8.003906 54.515625 -6.515625 C 54.515625 -4.472656 53.800781 -2.738281 52.375 -1.3125 C 50.945312 0.101562 49.21875 0.8125 47.1875 0.8125 C 45.695312 0.8125 44.359375 0.421875 43.171875 -0.359375 C 41.984375 -1.140625 41.085938 -2.171875 40.484375 -3.453125 C 36.617188 -1.148438 32.34375 0 27.65625 0 C 24.0625 0 20.6875 -0.675781 17.53125 -2.03125 C 14.382812 -3.382812 11.625 -5.25 9.25 -7.625 C 6.882812 -10 5.019531 -12.757812 3.65625 -15.90625 C 2.300781 -19.0625 1.625 -22.4375 1.625 -26.03125 Z M 14.640625 -26.03125 C 14.640625 -24.207031 14.976562 -22.515625 15.65625 -20.953125 C 16.332031 -19.390625 17.265625 -18.015625 18.453125 -16.828125 C 19.640625 -15.640625 21.015625 -14.707031 22.578125 -14.03125 C 24.140625 -13.351562 25.832031 -13.015625 27.65625 -13.015625 C 29.488281 -13.015625 31.1875 -13.351562 32.75 -14.03125 C 34.3125 -14.707031 35.679688 -15.640625 36.859375 -16.828125 C 38.046875 -18.015625 38.976562 -19.390625 39.65625 -20.953125 C 40.34375 -22.515625 40.6875 -24.207031 40.6875 -26.03125 C 40.6875 -27.863281 40.34375 -29.554688 39.65625 -31.109375 C 38.976562 -32.671875 38.046875 -34.046875 36.859375 -35.234375 C 35.679688 -36.421875 34.3125 -37.351562 32.75 -38.03125 C 31.1875 -38.707031 29.488281 -39.046875 27.65625 -39.046875 C 25.832031 -39.046875 24.140625 -38.707031 22.578125 -38.03125 C 21.015625 -37.351562 19.640625 -36.421875 18.453125 -35.234375 C 17.265625 -34.046875 16.332031 -32.671875 15.65625 -31.109375 C 14.976562 -29.554688 14.640625 -27.863281 14.640625 -26.03125 Z M 14.640625 -26.03125 "/></g></g></g><g fill="#e37e03" fill-opacity="1"><g transform="translate(217.658515, 126.097072)"><g><path d="M 3.25 -45.5625 C 3.25 -47.59375 3.960938 -49.320312 5.390625 -50.75 C 6.816406 -52.175781 8.546875 -52.890625 10.578125 -52.890625 C 12.066406 -52.890625 13.40625 -52.5 14.59375 -51.71875 C 15.78125 -50.9375 16.644531 -49.898438 17.1875 -48.609375 C 19.15625 -49.691406 21.207031 -50.539062 23.34375 -51.15625 C 25.476562 -51.769531 27.734375 -52.078125 30.109375 -52.078125 C 31.867188 -52.078125 33.390625 -51.429688 34.671875 -50.140625 C 35.960938 -48.847656 36.609375 -47.320312 36.609375 -45.5625 C 36.609375 -43.800781 35.960938 -42.273438 34.671875 -40.984375 C 33.390625 -39.691406 31.867188 -39.046875 30.109375 -39.046875 C 28.273438 -39.046875 26.578125 -38.707031 25.015625 -38.03125 C 23.460938 -37.351562 22.09375 -36.421875 20.90625 -35.234375 C 19.71875 -34.046875 18.785156 -32.671875 18.109375 -31.109375 C 17.429688 -29.554688 17.09375 -27.863281 17.09375 -26.03125 L 17.09375 -6.515625 C 17.09375 -4.742188 16.445312 -3.210938 15.15625 -1.921875 C 13.863281 -0.640625 12.335938 0 10.578125 0 C 8.816406 0 7.289062 -0.640625 6 -1.921875 C 4.707031 -3.210938 4.0625 -4.742188 4.0625 -6.515625 L 4.0625 -26.03125 C 4.0625 -30.707031 5.21875 -34.976562 7.53125 -38.84375 C 6.238281 -39.457031 5.203125 -40.359375 4.421875 -41.546875 C 3.640625 -42.734375 3.25 -44.070312 3.25 -45.5625 Z M 3.25 -45.5625 "/></g></g></g><g fill="#e37e03" fill-opacity="1"><g transform="translate(255.082374, 126.097072)"><g><path d="M 12.203125 -52.078125 L 12.203125 -58.578125 C 12.203125 -60.335938 12.84375 -61.863281 14.125 -63.15625 C 15.414062 -64.445312 16.945312 -65.09375 18.71875 -65.09375 C 20.476562 -65.09375 22 -64.445312 23.28125 -63.15625 C 24.570312 -61.863281 25.21875 -60.335938 25.21875 -58.578125 L 25.21875 -52.078125 L 34.984375 -52.078125 C 36.742188 -52.078125 38.269531 -51.429688 39.5625 -50.140625 C 40.851562 -48.847656 41.5 -47.320312 41.5 -45.5625 C 41.5 -43.800781 40.851562 -42.273438 39.5625 -40.984375 C 38.269531 -39.691406 36.742188 -39.046875 34.984375 -39.046875 L 25.21875 -39.046875 L 25.21875 -19.53125 C 25.21875 -17.757812 25.863281 -16.226562 27.15625 -14.9375 C 28.445312 -13.65625 29.972656 -13.015625 31.734375 -13.015625 L 34.984375 -13.015625 C 36.742188 -13.015625 38.269531 -12.367188 39.5625 -11.078125 C 40.851562 -9.796875 41.5 -8.273438 41.5 -6.515625 C 41.5 -4.742188 40.851562 -3.210938 39.5625 -1.921875 C 38.269531 -0.640625 36.742188 0 34.984375 0 L 31.734375 0 C 29.015625 0 26.46875 -0.503906 24.09375 -1.515625 C 21.726562 -2.535156 19.660156 -3.925781 17.890625 -5.6875 C 16.128906 -7.457031 14.738281 -9.523438 13.71875 -11.890625 C 12.707031 -14.265625 12.203125 -16.8125 12.203125 -19.53125 L 12.203125 -39.046875 L 7.328125 -39.046875 C 5.554688 -39.046875 4.023438 -39.691406 2.734375 -40.984375 C 1.453125 -42.273438 0.8125 -43.800781 0.8125 -45.5625 C 0.8125 -47.320312 1.453125 -48.847656 2.734375 -50.140625 C 4.023438 -51.429688 5.554688 -52.078125 7.328125 -52.078125 Z M 12.203125 -52.078125 "/></g></g></g><g clip-path="url(#44b43a29a1)"><g clip-path="url(#41b5d65154)"><path fill="#ffffff" d="M 202.910156 116.835938 L 212.414062 116.835938 L 212.414062 126.339844 L 202.910156 126.339844 Z M 202.910156 116.835938 " fill-opacity="1" fill-rule="nonzero"/></g></g><g fill="#e37e03" fill-opacity="1"><g transform="translate(317.141775, 126.355835)"><g><path d="M 15.578125 -5.9375 C 15.578125 -4.332031 14.988281 -2.941406 13.8125 -1.765625 C 12.644531 -0.585938 11.253906 0 9.640625 0 C 8.035156 0 6.644531 -0.585938 5.46875 -1.765625 C 4.289062 -2.941406 3.703125 -4.332031 3.703125 -5.9375 L 3.703125 -53.421875 C 3.703125 -55.023438 4.289062 -56.414062 5.46875 -57.59375 C 6.644531 -58.769531 8.035156 -59.359375 9.640625 -59.359375 C 11.253906 -59.359375 12.644531 -58.769531 13.8125 -57.59375 C 14.988281 -56.414062 15.578125 -55.023438 15.578125 -53.421875 L 15.578125 -35.609375 L 45.265625 -35.609375 L 45.265625 -53.421875 C 45.265625 -55.023438 45.847656 -56.414062 47.015625 -57.59375 C 48.191406 -58.769531 49.585938 -59.359375 51.203125 -59.359375 C 52.804688 -59.359375 54.195312 -58.769531 55.375 -57.59375 C 56.550781 -56.414062 57.140625 -55.023438 57.140625 -53.421875 L 57.140625 -5.9375 C 57.140625 -4.332031 56.550781 -2.941406 55.375 -1.765625 C 54.195312 -0.585938 52.804688 0 51.203125 0 C 49.585938 0 48.191406 -0.585938 47.015625 -1.765625 C 45.847656 -2.941406 45.265625 -4.332031 45.265625 -5.9375 L 45.265625 -23.75 L 15.578125 -23.75 Z M 15.578125 -5.9375 "/></g></g></g><g fill="#e37e03" fill-opacity="1"><g transform="translate(377.968841, 126.355835)"><g><path d="M 1.484375 -23.75 C 1.484375 -27.019531 2.097656 -30.09375 3.328125 -32.96875 C 4.566406 -35.84375 6.269531 -38.363281 8.4375 -40.53125 C 10.601562 -42.695312 13.125 -44.394531 16 -45.625 C 18.875 -46.863281 21.953125 -47.484375 25.234375 -47.484375 C 28.503906 -47.484375 31.578125 -46.863281 34.453125 -45.625 C 37.328125 -44.394531 39.847656 -42.695312 42.015625 -40.53125 C 44.179688 -38.363281 45.878906 -35.84375 47.109375 -32.96875 C 48.347656 -30.09375 48.96875 -27.019531 48.96875 -23.75 C 48.96875 -20.46875 48.347656 -17.390625 47.109375 -14.515625 C 45.878906 -11.640625 44.179688 -9.117188 42.015625 -6.953125 C 39.847656 -4.785156 37.328125 -3.082031 34.453125 -1.84375 C 31.578125 -0.613281 28.503906 0 25.234375 0 C 21.953125 0 18.875 -0.613281 16 -1.84375 C 13.125 -3.082031 10.601562 -4.785156 8.4375 -6.953125 C 6.269531 -9.117188 4.566406 -11.640625 3.328125 -14.515625 C 2.097656 -17.390625 1.484375 -20.46875 1.484375 -23.75 Z M 13.359375 -23.75 C 13.359375 -22.070312 13.664062 -20.519531 14.28125 -19.09375 C 14.90625 -17.675781 15.753906 -16.425781 16.828125 -15.34375 C 17.910156 -14.269531 19.160156 -13.421875 20.578125 -12.796875 C 22.003906 -12.179688 23.554688 -11.875 25.234375 -11.875 C 26.898438 -11.875 28.441406 -12.179688 29.859375 -12.796875 C 31.285156 -13.421875 32.539062 -14.269531 33.625 -15.34375 C 34.707031 -16.425781 35.554688 -17.675781 36.171875 -19.09375 C 36.785156 -20.519531 37.09375 -22.070312 37.09375 -23.75 C 37.09375 -25.414062 36.785156 -26.957031 36.171875 -28.375 C 35.554688 -29.800781 34.707031 -31.054688 33.625 -32.140625 C 32.539062 -33.222656 31.285156 -34.070312 29.859375 -34.6875 C 28.441406 -35.300781 26.898438 -35.609375 25.234375 -35.609375 C 23.554688 -35.609375 22.003906 -35.300781 20.578125 -34.6875 C 19.160156 -34.070312 17.910156 -33.222656 16.828125 -32.140625 C 15.753906 -31.054688 14.90625 -29.800781 14.28125 -28.375 C 13.664062 -26.957031 13.359375 -25.414062 13.359375 -23.75 Z M 13.359375 -23.75 "/></g></g></g><g fill="#000000" fill-opacity="1"><g transform="translate(428.390106, 126.355835)"><g><path d="M 2.96875 -41.546875 C 2.96875 -43.398438 3.613281 -44.976562 4.90625 -46.28125 C 6.207031 -47.582031 7.785156 -48.234375 9.640625 -48.234375 C 11.003906 -48.234375 12.226562 -47.875 13.3125 -47.15625 C 14.394531 -46.445312 15.179688 -45.503906 15.671875 -44.328125 C 17.460938 -45.316406 19.332031 -46.085938 21.28125 -46.640625 C 23.226562 -47.203125 25.285156 -47.484375 27.453125 -47.484375 C 30.734375 -47.484375 33.8125 -46.863281 36.6875 -45.625 C 39.5625 -44.394531 42.078125 -42.695312 44.234375 -40.53125 C 46.398438 -38.363281 48.101562 -35.84375 49.34375 -32.96875 C 50.582031 -30.09375 51.203125 -27.019531 51.203125 -23.75 L 51.203125 -5.9375 C 51.203125 -4.332031 50.613281 -2.941406 49.4375 -1.765625 C 48.257812 -0.585938 46.867188 0 45.265625 0 C 43.648438 0 42.253906 -0.585938 41.078125 -1.765625 C 39.910156 -2.941406 39.328125 -4.332031 39.328125 -5.9375 L 39.328125 -23.75 C 39.328125 -25.414062 39.015625 -26.957031 38.390625 -28.375 C 37.773438 -29.800781 36.925781 -31.054688 35.84375 -32.140625 C 34.757812 -33.222656 33.503906 -34.070312 32.078125 -34.6875 C 30.660156 -35.300781 29.117188 -35.609375 27.453125 -35.609375 C 25.785156 -35.609375 24.238281 -35.300781 22.8125 -34.6875 C 21.394531 -34.070312 20.144531 -33.222656 19.0625 -32.140625 C 17.976562 -31.054688 17.125 -29.800781 16.5 -28.375 C 15.882812 -26.957031 15.578125 -25.414062 15.578125 -23.75 L 15.578125 -5.9375 C 15.578125 -4.332031 14.988281 -2.941406 13.8125 -1.765625 C 12.644531 -0.585938 11.253906 0 9.640625 0 C 8.035156 0 6.644531 -0.585938 5.46875 -1.765625 C 4.289062 -2.941406 3.703125 -4.332031 3.703125 -5.9375 L 3.703125 -23.75 C 3.703125 -28.007812 4.753906 -31.90625 6.859375 -35.4375 C 5.679688 -35.988281 4.738281 -36.804688 4.03125 -37.890625 C 3.320312 -38.972656 2.96875 -40.191406 2.96875 -41.546875 Z M 2.96875 -41.546875 "/></g></g></g><g fill="#000000" fill-opacity="1"><g transform="translate(481.799226, 126.355835)"><g><path d="M 25.234375 0 C 21.953125 0 18.875 -0.613281 16 -1.84375 C 13.125 -3.082031 10.601562 -4.785156 8.4375 -6.953125 C 6.269531 -9.117188 4.566406 -11.640625 3.328125 -14.515625 C 2.097656 -17.390625 1.484375 -20.46875 1.484375 -23.75 C 1.484375 -27.019531 2.097656 -30.09375 3.328125 -32.96875 C 4.566406 -35.84375 6.269531 -38.363281 8.4375 -40.53125 C 10.601562 -42.695312 13.125 -44.394531 16 -45.625 C 18.875 -46.863281 21.953125 -47.484375 25.234375 -47.484375 C 28.503906 -47.484375 31.578125 -46.863281 34.453125 -45.625 C 37.328125 -44.394531 39.847656 -42.695312 42.015625 -40.53125 C 44.179688 -38.363281 45.878906 -35.84375 47.109375 -32.96875 C 48.347656 -30.09375 48.96875 -27.019531 48.96875 -23.75 C 48.96875 -22.132812 48.378906 -20.738281 47.203125 -19.5625 C 46.035156 -18.394531 44.644531 -17.8125 43.03125 -17.8125 L 14.9375 -17.8125 C 15.988281 -16.019531 17.410156 -14.582031 19.203125 -13.5 C 20.992188 -12.414062 23.003906 -11.875 25.234375 -11.875 L 31.15625 -11.875 C 32.769531 -11.875 34.160156 -11.285156 35.328125 -10.109375 C 36.503906 -8.929688 37.09375 -7.539062 37.09375 -5.9375 C 37.09375 -4.332031 36.503906 -2.941406 35.328125 -1.765625 C 34.160156 -0.585938 32.769531 0 31.15625 0 Z M 25.234375 -35.609375 C 23.003906 -35.609375 20.992188 -35.066406 19.203125 -33.984375 C 17.410156 -32.910156 15.988281 -31.476562 14.9375 -29.6875 L 35.515625 -29.6875 C 34.472656 -31.476562 33.035156 -32.910156 31.203125 -33.984375 C 29.378906 -35.066406 27.390625 -35.609375 25.234375 -35.609375 Z M 25.234375 -35.609375 "/></g></g></g><g fill="#000000" fill-opacity="1"><g transform="translate(532.241174, 126.355835)"><g><path d="M 25.96875 5.9375 C 28.75 5.9375 31.191406 5.097656 33.296875 3.421875 C 35.398438 1.753906 36.789062 -0.375 37.46875 -2.96875 C 35.738281 -2.039062 33.914062 -1.3125 32 -0.78125 C 30.082031 -0.257812 28.070312 0 25.96875 0 C 22.6875 0 19.609375 -0.613281 16.734375 -1.84375 C 13.859375 -3.082031 11.335938 -4.785156 9.171875 -6.953125 C 7.015625 -9.117188 5.316406 -11.640625 4.078125 -14.515625 C 2.835938 -17.390625 2.21875 -20.46875 2.21875 -23.75 L 2.21875 -41.546875 C 2.21875 -43.160156 2.804688 -44.550781 3.984375 -45.71875 C 5.160156 -46.894531 6.550781 -47.484375 8.15625 -47.484375 C 9.769531 -47.484375 11.160156 -46.894531 12.328125 -45.71875 C 13.503906 -44.550781 14.09375 -43.160156 14.09375 -41.546875 L 14.09375 -23.75 C 14.09375 -22.070312 14.398438 -20.519531 15.015625 -19.09375 C 15.640625 -17.675781 16.492188 -16.425781 17.578125 -15.34375 C 18.660156 -14.269531 19.910156 -13.421875 21.328125 -12.796875 C 22.753906 -12.179688 24.300781 -11.875 25.96875 -11.875 C 27.632812 -11.875 29.175781 -12.179688 30.59375 -12.796875 C 32.019531 -13.421875 33.273438 -14.269531 34.359375 -15.34375 C 35.441406 -16.425781 36.289062 -17.675781 36.90625 -19.09375 C 37.53125 -20.519531 37.84375 -22.070312 37.84375 -23.75 L 37.84375 -41.546875 C 37.84375 -43.160156 38.425781 -44.550781 39.59375 -45.71875 C 40.769531 -46.894531 42.164062 -47.484375 43.78125 -47.484375 C 45.382812 -47.484375 46.773438 -46.894531 47.953125 -45.71875 C 49.128906 -44.550781 49.71875 -43.160156 49.71875 -41.546875 L 49.71875 -5.9375 C 49.71875 -2.65625 49.097656 0.421875 47.859375 3.296875 C 46.617188 6.171875 44.914062 8.6875 42.75 10.84375 C 40.59375 13.007812 38.078125 14.710938 35.203125 15.953125 C 32.328125 17.191406 29.25 17.8125 25.96875 17.8125 C 22.9375 17.8125 19.96875 17.238281 17.0625 16.09375 C 14.15625 14.945312 11.53125 13.203125 9.1875 10.859375 C 8.007812 9.679688 7.421875 8.285156 7.421875 6.671875 C 7.421875 5.066406 8.003906 3.675781 9.171875 2.5 C 10.347656 1.320312 11.742188 0.734375 13.359375 0.734375 C 14.960938 0.734375 16.351562 1.320312 17.53125 2.5 C 18.769531 3.675781 20.097656 4.539062 21.515625 5.09375 C 22.941406 5.65625 24.425781 5.9375 25.96875 5.9375 Z M 25.96875 5.9375 "/></g></g></g><g clip-path="url(#99be2472e7)"><g clip-path="url(#c72c56db11)"><path fill="#ffffff" d="M 223.785156 77.921875 L 233.289062 77.921875 L 233.289062 87.425781 L 223.785156 87.425781 Z M 223.785156 77.921875 " fill-opacity="1" fill-rule="nonzero"/></g></g><g clip-path="url(#fa8a4aa72d)"><g clip-path="url(#fa2e625d5a)"><path fill="#e37e03" d="M 82.25 77.921875 L 91.75 77.921875 L 91.75 87.425781 L 82.25 87.425781 Z M 82.25 77.921875 " fill-opacity="1" fill-rule="nonzero"/></g></g><g clip-path="url(#fccf3ad762)"><g clip-path="url(#2f47989dbc)"><path fill="#e37e03" d="M 434.484375 83.519531 L 442.296875 83.519531 L 442.296875 91.332031 L 434.484375 91.332031 Z M 434.484375 83.519531 " fill-opacity="1" fill-rule="nonzero"/></g></g><g clip-path="url(#b3e5cf222d)"><g clip-path="url(#1100850c70)"><path fill="#e37e03" d="M 269.648438 39.683594 L 277.351562 39.683594 L 277.351562 47.386719 L 269.648438 47.386719 Z M 269.648438 39.683594 " fill-opacity="1" fill-rule="nonzero"/></g></g></svg>